<svg width="30" height="52" viewBox="0 0 30 52" fill="none" xmlns="http://www.w3.org/2000/svg">
<g clip-path="url(#clip0_192_588)">
<path fill-rule="evenodd" clip-rule="evenodd" d="M6.33307 8.86045C6.39339 8.73847 6.39339 8.59486 6.33307 8.47288L5.66759 7.12712C5.52511 6.839 5.73232 6.5 6.05092 6.5H23.9498C24.2684 6.5 24.4756 6.839 24.3331 7.12712L23.6675 8.47288C23.6073 8.59486 23.6073 8.73847 23.6675 8.86045L24.3331 10.2062C24.4756 10.4943 24.2684 10.8333 23.9498 10.8333H20.3207C19.9389 10.8333 19.7477 11.3001 20.0177 11.5731L25.589 17.2064C25.6694 17.2877 25.7146 17.3979 25.7146 17.5128V47.2333C25.7146 47.4728 25.9064 47.6667 26.1432 47.6667H29.3069C29.6255 47.6667 29.8328 48.0058 29.6903 48.2937L29.0247 49.6396C28.9645 49.7616 28.9645 49.905 29.0247 50.027L29.6903 51.373C29.8328 51.6609 29.6255 52 29.3069 52H17.8366C17.518 52 17.3108 51.6609 17.4533 51.373L18.1188 50.027C18.1791 49.905 18.1791 49.7616 18.1188 49.6396L17.4533 48.2937C17.3108 48.0058 17.518 47.6667 17.8366 47.6667H21.0003C21.237 47.6667 21.4289 47.4728 21.4289 47.2333V32.9333C21.4289 32.6939 21.237 32.5 21.0003 32.5H9.00033C8.76363 32.5 8.57176 32.6939 8.57176 32.9333V47.2333C8.57176 47.4728 8.76363 47.6667 9.00033 47.6667H12.164C12.4826 47.6667 12.6898 48.0058 12.5474 48.2937L11.8819 49.6396C11.8216 49.7616 11.8216 49.905 11.8819 50.027L12.5474 51.373C12.6898 51.6609 12.4826 52 12.164 52H0.693774C0.37518 52 0.167968 51.6609 0.310447 51.373L0.975928 50.027C1.03625 49.905 1.03625 49.7616 0.975928 49.6396L0.310447 48.2937C0.167969 48.0058 0.37518 47.6667 0.693774 47.6667H3.85747C4.09417 47.6667 4.28604 47.4728 4.28604 47.2333V17.5128C4.28604 17.3979 4.33119 17.2877 4.41157 17.2064L9.983 11.5731C10.253 11.3001 10.0618 10.8333 9.67996 10.8333H6.05092C5.73232 10.8333 5.52511 10.4943 5.66759 10.2062L6.33307 8.86045ZM9.00033 28.1667C8.76363 28.1667 8.57176 27.9728 8.57176 27.7333V17.5128C8.57176 17.3979 8.61691 17.2877 8.69729 17.2064L10.5891 15.2936C10.6695 15.2123 10.7785 15.1667 10.8921 15.1667H19.1085C19.2222 15.1667 19.3312 15.2123 19.4116 15.2936L21.3034 17.2064C21.3838 17.2877 21.4289 17.3979 21.4289 17.5128V27.7333C21.4289 27.9728 21.237 28.1667 21.0003 28.1667H9.00033Z" fill="#BFC8E7"/>
<path d="M0 5.79885V0.433333C0 0.19401 0.191877 0 0.428571 0H29.5714C29.8082 0 30 0.19401 30 0.433333V5.79885C30 6.12099 29.6646 6.3305 29.3799 6.18644L28.0487 5.51356C27.9281 5.45257 27.7862 5.45257 27.6656 5.51356L26.3344 6.18644C26.0496 6.3305 25.7143 6.12099 25.7143 5.79885V4.76667C25.7143 4.52734 25.5225 4.33333 25.2857 4.33333H17.5714C17.3347 4.33333 17.1429 4.52734 17.1429 4.76667V34.2333C17.1429 34.4728 17.3347 34.6667 17.5714 34.6667H25.2857C25.5225 34.6667 25.7143 34.4728 25.7143 34.2333V33.2011C25.7143 32.879 26.0496 32.6694 26.3344 32.8135L27.6656 33.4865C27.7862 33.5474 27.9281 33.5474 28.0487 33.4865L29.3799 32.8135C29.6646 32.6694 30 32.879 30 33.2011V38.5667C30 38.8061 29.8082 39 29.5714 39H0.428571C0.191878 39 0 38.8061 0 38.5667V33.2011C0 32.879 0.335276 32.6694 0.620235 32.8135L1.95119 33.4865C2.07185 33.5474 2.21387 33.5474 2.33451 33.4865L3.66549 32.8135C3.95044 32.6694 4.28571 32.879 4.28571 33.2011V34.2333C4.28571 34.4728 4.47759 34.6667 4.71429 34.6667H12.4286C12.6653 34.6667 12.8571 34.4728 12.8571 34.2333V4.76667C12.8571 4.52734 12.6653 4.33333 12.4286 4.33333H4.71429C4.47759 4.33333 4.28571 4.52734 4.28571 4.76667V5.79885C4.28571 6.12099 3.95044 6.3305 3.66549 6.18644L2.33451 5.51356C2.21387 5.45257 2.07185 5.45257 1.95119 5.51356L0.620235 6.18644C0.335278 6.3305 0 6.12099 0 5.79885Z" fill="#FFC857"/>
</g>
<defs>
<clipPath id="clip0_192_588">
<rect width="30" height="52" fill="white"/>
</clipPath>
</defs>
</svg>
